<svg width="598" height="250" viewBox="0 0 598 250" fill="none" xmlns="http://www.w3.org/2000/svg">
<path d="M46.9141 143V58.4492H100.879C108.262 58.4492 114.492 59.543 119.57 61.7305C124.648 63.8789 128.496 66.9844 131.113 71.0469C133.73 75.0703 135.039 79.9336 135.039 85.6367V85.7539C135.039 91.7695 133.496 96.9258 130.41 101.223C127.324 105.48 122.91 108.566 117.168 110.48L138.203 143H112.773L94.9023 113.996C94.7461 113.996 94.5703 113.996 94.375 113.996C94.2188 113.996 94.043 113.996 93.8477 113.996H69.4141V143H46.9141ZM69.4141 98.7617H98.8281C103.125 98.7617 106.465 97.707 108.848 95.5977C111.23 93.4492 112.422 90.4805 112.422 86.6914V86.5742C112.422 82.8242 111.191 79.8945 108.73 77.7852C106.27 75.6367 102.91 74.5625 98.6523 74.5625H69.4141V98.7617ZM197.559 144.641C186.855 144.641 177.52 142.863 169.551 139.309C161.621 135.715 155.488 130.637 151.152 124.074C146.816 117.473 144.648 109.699 144.648 100.754V100.637C144.648 91.6914 146.816 83.9375 151.152 77.375C155.527 70.8125 161.68 65.7344 169.609 62.1406C177.539 58.5469 186.855 56.75 197.559 56.75C208.301 56.75 217.637 58.5469 225.566 62.1406C233.496 65.7344 239.629 70.8125 243.965 77.375C248.34 83.9375 250.527 91.6914 250.527 100.637V100.754C250.527 109.699 248.34 117.473 243.965 124.074C239.629 130.637 233.496 135.715 225.566 139.309C217.637 142.863 208.301 144.641 197.559 144.641ZM197.559 127.121C203.691 127.121 209.004 126.047 213.496 123.898C217.988 121.75 221.465 118.703 223.926 114.758C226.387 110.773 227.617 106.105 227.617 100.754V100.637C227.617 95.2461 226.367 90.5977 223.867 86.6914C221.406 82.7461 217.93 79.6992 213.438 77.5508C208.945 75.4023 203.652 74.3281 197.559 74.3281C191.465 74.3281 186.172 75.4023 181.68 77.5508C177.188 79.6602 173.711 82.6875 171.25 86.6328C168.789 90.5781 167.559 95.2461 167.559 100.637V100.754C167.559 106.145 168.789 110.812 171.25 114.758C173.711 118.703 177.188 121.75 181.68 123.898C186.172 126.047 191.465 127.121 197.559 127.121ZM261.836 143V58.4492H339.648V74.9727H284.336V92.668H335.84V107.727H284.336V126.477H339.648V143H261.836ZM401.582 144.641C390.918 144.641 381.699 142.863 373.926 139.309C366.191 135.715 360.215 130.637 355.996 124.074C351.816 117.512 349.727 109.719 349.727 100.695V100.637C349.727 91.6133 351.816 83.8203 355.996 77.2578C360.215 70.6953 366.191 65.6367 373.926 62.082C381.699 58.5273 390.918 56.75 401.582 56.75C410.723 56.75 418.848 58.1758 425.957 61.0273C433.105 63.8789 438.887 67.9023 443.301 73.0977C447.715 78.2539 450.391 84.3281 451.328 91.3203L451.387 91.9648H429.121L428.945 91.3203C427.93 87.7266 426.191 84.6602 423.73 82.1211C421.309 79.582 418.242 77.6484 414.531 76.3203C410.859 74.9922 406.602 74.3281 401.758 74.3281C395.742 74.3281 390.547 75.4023 386.172 77.5508C381.836 79.6992 378.496 82.7461 376.152 86.6914C373.809 90.5977 372.637 95.2266 372.637 100.578V100.695C372.637 106.047 373.809 110.715 376.152 114.699C378.496 118.645 381.836 121.691 386.172 123.84C390.547 125.988 395.742 127.062 401.758 127.062C406.484 127.062 410.703 126.398 414.414 125.07C418.125 123.742 421.23 121.789 423.73 119.211C426.23 116.594 427.988 113.43 429.004 109.719L429.18 109.191H451.445L451.328 109.895C450.391 116.926 447.715 123.039 443.301 128.234C438.887 133.43 433.105 137.473 425.957 140.363C418.809 143.215 410.684 144.641 401.582 144.641ZM482.91 118.449V95.0703H485.078L527.266 58.4492H554.98L510.391 96.7695L507.168 96.6523L482.91 118.449ZM462.227 143V58.4492H484.727V143H462.227ZM528.613 143L491.113 101.867L508.281 89.5039L556.855 143H528.613Z" fill="black"/>
<path d="M150.601 203V167.771H163.467C166.982 167.771 169.985 168.454 172.476 169.821C174.966 171.188 176.878 173.174 178.213 175.778C179.548 178.382 180.215 181.54 180.215 185.251V185.3C180.215 189.011 179.548 192.193 178.213 194.846C176.895 197.482 174.982 199.501 172.476 200.9C169.985 202.3 166.982 203 163.467 203H150.601ZM156.899 197.702H162.808C165.184 197.702 167.186 197.23 168.813 196.286C170.441 195.326 171.678 193.934 172.524 192.111C173.371 190.272 173.794 188.01 173.794 185.324V185.275C173.794 182.655 173.363 180.433 172.5 178.61C171.654 176.787 170.409 175.412 168.765 174.484C167.137 173.54 165.151 173.068 162.808 173.068H156.899V197.702ZM210.22 203V167.771H233.022V173.068H216.519V182.565H232.119V187.644H216.519V197.702H233.022V203H210.22ZM275.869 203.61C273.167 203.61 270.807 203.203 268.789 202.39C266.771 201.576 265.176 200.412 264.004 198.898C262.848 197.385 262.197 195.578 262.051 193.479L262.026 193.112H268.032L268.081 193.405C268.26 194.414 268.7 195.285 269.399 196.018C270.099 196.75 271.019 197.32 272.158 197.727C273.314 198.117 274.624 198.312 276.089 198.312C277.57 198.312 278.848 198.109 279.922 197.702C281.012 197.295 281.851 196.717 282.437 195.969C283.022 195.204 283.315 194.317 283.315 193.308V193.283C283.315 191.965 282.819 190.923 281.826 190.158C280.85 189.393 279.222 188.767 276.943 188.278L273.159 187.497C269.709 186.781 267.121 185.609 265.396 183.981C263.67 182.338 262.808 180.205 262.808 177.585V177.561C262.824 175.477 263.385 173.662 264.492 172.116C265.615 170.554 267.161 169.341 269.131 168.479C271.1 167.6 273.346 167.16 275.869 167.16C278.424 167.16 280.662 167.583 282.583 168.43C284.504 169.276 286.009 170.456 287.1 171.97C288.206 173.483 288.817 175.241 288.931 177.243L288.955 177.658H282.949L282.9 177.341C282.754 176.315 282.371 175.445 281.753 174.729C281.134 173.996 280.321 173.435 279.312 173.044C278.302 172.653 277.139 172.458 275.82 172.458C274.453 172.458 273.265 172.661 272.256 173.068C271.263 173.459 270.49 174.012 269.937 174.729C269.399 175.445 269.131 176.275 269.131 177.219V177.243C269.131 178.48 269.627 179.489 270.62 180.271C271.629 181.035 273.192 181.638 275.308 182.077L279.092 182.858C281.549 183.363 283.551 184.047 285.098 184.909C286.644 185.772 287.783 186.854 288.516 188.156C289.264 189.458 289.639 191.021 289.639 192.844V192.868C289.639 195.049 289.085 196.945 287.979 198.557C286.888 200.168 285.309 201.413 283.242 202.292C281.191 203.171 278.734 203.61 275.869 203.61ZM319.351 203V167.771H325.649V203H319.351ZM372.329 203.61C369.757 203.61 367.446 203.195 365.396 202.365C363.345 201.519 361.595 200.298 360.146 198.703C358.698 197.108 357.583 195.179 356.802 192.917C356.037 190.638 355.654 188.083 355.654 185.251V185.227C355.654 181.483 356.33 178.269 357.681 175.583C359.032 172.881 360.944 170.806 363.418 169.357C365.908 167.893 368.838 167.16 372.207 167.16C374.99 167.16 377.432 167.657 379.531 168.649C381.631 169.626 383.34 170.969 384.658 172.678C385.993 174.37 386.88 176.299 387.319 178.464L387.417 178.879H381.045L380.947 178.61C380.28 176.722 379.198 175.249 377.7 174.191C376.219 173.133 374.396 172.604 372.231 172.604C370.116 172.604 368.301 173.101 366.787 174.094C365.273 175.087 364.11 176.527 363.296 178.415C362.482 180.287 362.075 182.541 362.075 185.178V185.202C362.075 187.22 362.311 189.035 362.783 190.646C363.255 192.242 363.939 193.601 364.834 194.724C365.745 195.83 366.836 196.685 368.105 197.287C369.375 197.873 370.807 198.166 372.402 198.166C374.176 198.166 375.739 197.824 377.09 197.141C378.457 196.457 379.523 195.497 380.288 194.26C381.069 193.023 381.476 191.582 381.509 189.938L381.533 189.401H372.793V184.494H387.686V188.303C387.686 190.679 387.336 192.811 386.636 194.699C385.952 196.587 384.943 198.199 383.608 199.533C382.29 200.852 380.679 201.861 378.774 202.561C376.886 203.26 374.738 203.61 372.329 203.61ZM417.837 203V167.771H423.501L444.106 197.409L438.149 192.478H440.811V167.771H447.061V203H441.445L420.815 173.288L426.772 178.195H424.087V203H417.837Z" fill="black"/>
</svg>
